<?xml version="1.0" encoding="utf-8"?>
<!-- Generator: Adobe Illustrator 23.0.2, SVG Export Plug-In . SVG Version: 6.00 Build 0)  -->
<svg version="1.1" id="Слой_1" xmlns="http://www.w3.org/2000/svg" xmlns:xlink="http://www.w3.org/1999/xlink" x="0px" y="0px"
     viewBox="0 0 290.3 84.1" style="enable-background:new 0 0 290.3 84.1;" xml:space="preserve">
<style type="text/css">
	.st0{fill:#67747A;}
	.st1{fill:#FFFFFF;}
	.st2{clip-path:url(#SVGID_2_);fill:#EE7271;}
	.st3{clip-path:url(#SVGID_2_);fill:#67747A;}
	.st4{clip-path:url(#SVGID_2_);fill:#FFFFFF;}
	.st5{clip-path:url(#SVGID_4_);fill:#E95036;}
	.st6{clip-path:url(#SVGID_4_);fill:#5373B8;}
	.st7{clip-path:url(#SVGID_4_);fill:#67747A;}
	.st8{clip-path:url(#SVGID_4_);fill:#FFFFFF;}
	.st9{fill:#F19120;}
	.st10{fill:#FCCB8D;}
	.st11{clip-path:url(#SVGID_6_);fill:#67747A;}
	.st12{clip-path:url(#SVGID_6_);fill:#60B560;}
	.st13{clip-path:url(#SVGID_6_);fill:#FFFFFF;}
	.st14{clip-path:url(#SVGID_8_);fill:#FFFFFF;}
	.st15{clip-path:url(#SVGID_10_);fill:#FFFFFF;}
	.st16{clip-path:url(#SVGID_12_);fill:#FFFFFF;}
</style>
  <g>
	<path class="st0" d="M101.6,36.5c-0.7,0-1.2-0.1-1.4-0.4c-0.2-0.3-0.3-0.7-0.3-1.3V18.5c0-0.7,0.1-1.2,0.4-1.5
		c0.3-0.3,0.7-0.5,1.4-0.5h11.1c0.2,0,0.3,0,0.4,0.1c0.1,0.1,0.1,0.3,0.1,0.5v2.5c0,0.2,0,0.4-0.1,0.4c-0.1,0.1-0.2,0.1-0.4,0.1
		h-8.6v3.5h4.2c1.1,0,2.1,0.1,2.9,0.3c0.8,0.2,1.5,0.5,2,0.9c0.5,0.4,1,0.8,1.3,1.3c0.3,0.5,0.5,0.9,0.7,1.4
		c0.2,0.5,0.3,0.9,0.3,1.4c0,0.4,0.1,0.8,0.1,1.2c0,0.9-0.2,1.7-0.5,2.5c-0.4,0.8-0.8,1.4-1.5,2c-0.6,0.6-1.3,1-2.2,1.3
		c-0.8,0.3-1.7,0.5-2.7,0.5H101.6z M111.1,30c0-0.7-0.2-1.4-0.7-1.8c-0.5-0.5-1.1-0.7-2-0.7h-4.2v5.3h4.1c0.5,0,1-0.1,1.3-0.3
		c0.4-0.2,0.6-0.4,0.9-0.7c0.2-0.3,0.4-0.6,0.4-0.9C111.1,30.6,111.1,30.3,111.1,30"/>
    <path class="st0" d="M131.3,23.2l-2.5,4.3l-4.8,7.8c-0.2,0.3-0.3,0.5-0.5,0.6c-0.1,0.2-0.3,0.3-0.4,0.4c-0.2,0.1-0.3,0.2-0.5,0.2
		c-0.2,0-0.4,0-0.7,0h-1.1c-0.7,0-1.2-0.2-1.5-0.5c-0.2-0.4-0.4-0.8-0.4-1.4V17.1c0-0.4,0.2-0.5,0.6-0.5h3c0.3,0,0.4,0,0.5,0.1
		c0.1,0.1,0.1,0.2,0.1,0.4v12.8h0.2l2.4-4l4.9-8.1c0.2-0.3,0.3-0.5,0.5-0.7c0.1-0.2,0.3-0.3,0.4-0.4c0.2-0.1,0.3-0.2,0.5-0.2
		c0.2,0,0.4,0,0.7,0h1.2c0.7,0,1.2,0.1,1.4,0.4c0.3,0.3,0.4,0.8,0.4,1.6V36c0,0.4-0.2,0.5-0.6,0.5h-3c-0.3,0-0.4,0-0.5-0.1
		c-0.1-0.1-0.1-0.2-0.1-0.4V23.2H131.3z"/>
    <path class="st0" d="M141.7,36.5c-0.7,0-1.2-0.1-1.4-0.4c-0.2-0.3-0.3-0.7-0.3-1.3V18.5c0-0.7,0.1-1.2,0.4-1.5
		c0.3-0.3,0.7-0.5,1.4-0.5h11.1c0.2,0,0.3,0,0.4,0.1c0.1,0.1,0.1,0.3,0.1,0.5v2.5c0,0.2,0,0.4-0.1,0.4c-0.1,0.1-0.2,0.1-0.4,0.1
		h-8.6v3.5h4.2c1.1,0,2.1,0.1,2.9,0.3c0.8,0.2,1.5,0.5,2,0.9c0.5,0.4,1,0.8,1.3,1.3c0.3,0.5,0.5,0.9,0.7,1.4
		c0.2,0.5,0.3,0.9,0.3,1.4c0,0.4,0.1,0.8,0.1,1.2c0,0.9-0.2,1.7-0.5,2.5c-0.4,0.8-0.8,1.4-1.4,2c-0.6,0.6-1.3,1-2.2,1.3
		c-0.8,0.3-1.7,0.5-2.7,0.5H141.7z M151.2,30c0-0.7-0.2-1.4-0.7-1.8c-0.5-0.5-1.1-0.7-2-0.7h-4.2v5.3h4.1c0.5,0,1-0.1,1.3-0.3
		c0.4-0.2,0.6-0.4,0.9-0.7c0.2-0.3,0.4-0.6,0.4-0.9C151.1,30.6,151.2,30.3,151.2,30"/>
    <path class="st0" d="M161.4,18.5c0-0.7,0.2-1.1,0.4-1.4c0.2-0.3,0.7-0.5,1.4-0.5h10.2c0.7,0,1.2,0.2,1.4,0.5
		c0.3,0.3,0.4,0.8,0.4,1.4V36c0,0.2,0,0.3-0.1,0.4c-0.1,0.1-0.2,0.1-0.5,0.1h-3.2c-0.2,0-0.4,0-0.4-0.1c-0.1-0.1-0.1-0.2-0.1-0.4
		V20.4h-5.5l-0.1,2c-0.2,2.1-0.3,4-0.5,5.6c-0.2,1.6-0.4,3-0.8,4.3c-0.4,1.2-1,2.2-1.8,3c-0.8,0.8-1.9,1.4-3.3,1.9
		c-0.2,0.1-0.4,0.1-0.5,0.1c-0.1,0-0.3-0.2-0.4-0.4l-1-2.1c-0.1-0.2-0.1-0.3-0.1-0.5c0-0.2,0.2-0.3,0.4-0.4c0.7-0.4,1.3-0.8,1.8-1.3
		c0.4-0.5,0.8-1.1,1.1-2c0.3-0.8,0.4-1.8,0.6-3.1c0.1-1.2,0.2-2.8,0.4-4.6L161.4,18.5z"/>
    <path class="st0" d="M192,23.2l-2.5,4.3l-4.8,7.8c-0.2,0.3-0.3,0.5-0.5,0.6c-0.1,0.2-0.3,0.3-0.4,0.4s-0.3,0.2-0.5,0.2
		c-0.2,0-0.4,0-0.7,0h-1.1c-0.7,0-1.2-0.2-1.5-0.5c-0.2-0.4-0.4-0.8-0.4-1.4V17.1c0-0.4,0.2-0.5,0.6-0.5h3c0.3,0,0.4,0,0.5,0.1
		c0.1,0.1,0.1,0.2,0.1,0.4v12.8h0.2l2.4-4l4.9-8.1c0.2-0.3,0.3-0.5,0.5-0.7c0.1-0.2,0.3-0.3,0.4-0.4c0.2-0.1,0.3-0.2,0.5-0.2
		c0.2,0,0.4,0,0.7,0h1.2c0.7,0,1.2,0.1,1.4,0.4c0.3,0.3,0.4,0.8,0.4,1.6V36c0,0.4-0.2,0.5-0.6,0.5h-3c-0.3,0-0.4,0-0.5-0.1
		c-0.1-0.1-0.1-0.2-0.1-0.4V23.2H192z"/>
    <path class="st0" d="M217.6,26.5c0,1.6-0.2,3.1-0.5,4.4c-0.4,1.3-0.9,2.4-1.6,3.2c-0.7,0.9-1.7,1.6-2.8,2c-1.1,0.5-2.4,0.7-4,0.7
		c-2.9,0-5.1-0.9-6.6-2.7c-1.4-1.8-2.1-4.3-2.1-7.6c0-1.6,0.2-3,0.6-4.3c0.4-1.3,1-2.4,1.7-3.2c0.8-0.9,1.7-1.6,2.8-2
		c1.1-0.5,2.3-0.7,3.7-0.7c1.5,0,2.8,0.2,3.9,0.7c1.1,0.5,2,1.2,2.8,2c0.7,0.9,1.3,2,1.7,3.2C217.4,23.5,217.6,24.9,217.6,26.5
		 M213,26.6c0-0.9-0.1-1.7-0.2-2.4c-0.1-0.8-0.3-1.5-0.7-2c-0.3-0.6-0.8-1.1-1.3-1.4c-0.6-0.4-1.3-0.5-2.1-0.5
		c-0.7,0-1.4,0.2-1.9,0.5c-0.5,0.3-1,0.8-1.4,1.3c-0.4,0.6-0.6,1.2-0.8,2c-0.2,0.8-0.3,1.6-0.3,2.4c0,1,0.1,1.9,0.2,2.7
		c0.1,0.8,0.4,1.5,0.7,2c0.3,0.6,0.8,1,1.3,1.3c0.6,0.3,1.2,0.5,2.1,0.5c0.8,0,1.5-0.2,2-0.5c0.5-0.4,1-0.8,1.3-1.4
		c0.3-0.6,0.6-1.3,0.7-2C213,28.2,213,27.4,213,26.6"/>
    <path class="st0" d="M233.9,20.3h-5.1v15.6c0,0.2,0,0.4-0.1,0.5c-0.1,0.1-0.3,0.1-0.6,0.1h-3c-0.2,0-0.4,0-0.5-0.1
		c-0.1-0.1-0.2-0.2-0.2-0.5V20.3h-5c-0.4,0-0.5-0.2-0.5-0.6v-2.5c0-0.2,0-0.4,0.1-0.5c0.1-0.1,0.2-0.1,0.4-0.1h14.6
		c0.2,0,0.4,0,0.5,0.1c0.1,0.1,0.1,0.2,0.1,0.5v2.5C234.5,20.1,234.3,20.3,233.9,20.3"/>
    <path class="st0" d="M250.9,36.3c-0.1,0.1-0.2,0.2-0.5,0.2H242c-1.1,0-1.9-0.2-2.6-0.5c-0.7-0.3-1.2-0.7-1.6-1.2
		c-0.4-0.5-0.7-1.1-0.8-1.7c-0.2-0.6-0.2-1.3-0.2-1.9v-9.4c0-0.7,0.1-1.3,0.3-2c0.2-0.6,0.5-1.2,0.9-1.7c0.4-0.5,0.9-0.9,1.6-1.2
		c0.7-0.3,1.5-0.4,2.4-0.4h8.2c0.2,0,0.4,0,0.4,0.1c0.1,0.1,0.1,0.3,0.1,0.5v2.4c0,0.2,0,0.4-0.1,0.5c-0.1,0.1-0.2,0.1-0.4,0.1h-7.2
		c-0.7,0-1.2,0.2-1.5,0.5c-0.2,0.3-0.4,0.8-0.4,1.2v2.2h8.2c0.2,0,0.4,0.1,0.4,0.1c0.1,0.1,0.1,0.3,0.1,0.5v2.2c0,0.2,0,0.4-0.1,0.5
		c-0.1,0.1-0.2,0.2-0.4,0.2h-8.2V31c0,0.7,0.2,1.1,0.5,1.4c0.3,0.2,0.8,0.4,1.4,0.4h7.5c0.2,0,0.4,0,0.5,0.1
		c0.1,0.1,0.1,0.3,0.1,0.6v2.4C251,36.1,251,36.2,250.9,36.3"/>
    <path class="st0" d="M266.2,25.9c0.5,0.2,0.9,0.4,1.2,0.6c0.3,0.2,0.6,0.5,0.8,0.8c0.2,0.3,0.4,0.6,0.5,1c0.1,0.4,0.2,0.7,0.4,1.2
		l1.8,6.6c0,0.1,0,0.2,0,0.4c0,0.1-0.2,0.2-0.4,0.2h-3.3c-0.1,0-0.2,0-0.3-0.1c-0.1,0-0.2-0.2-0.3-0.3l-1.7-6.1
		c-0.1-0.5-0.3-0.9-0.5-1.2c-0.2-0.3-0.4-0.6-0.7-0.7c-0.3-0.2-0.6-0.3-1-0.4c-0.4-0.1-0.8-0.1-1.3-0.1H259l0,8.4
		c0,0.2,0,0.3-0.1,0.4c-0.1,0-0.2,0.1-0.4,0.1h-3.3c-0.2,0-0.3,0-0.4-0.1c-0.1,0-0.1-0.2-0.1-0.4v-19c0-0.2,0-0.3,0.1-0.4
		c0.1,0,0.2-0.1,0.4-0.1h3.3c0.2,0,0.3,0,0.4,0.1c0.1,0,0.1,0.2,0.1,0.4v7.2h2.3c0.3,0,0.6,0,0.9-0.1c0.3,0,0.6-0.2,0.9-0.3
		c0.3-0.2,0.6-0.4,0.8-0.8c0.3-0.3,0.5-0.8,0.6-1.4l1.3-4.8c0-0.2,0.1-0.3,0.2-0.3c0.1,0,0.2-0.1,0.3-0.1h3.2c0.2,0,0.4,0.1,0.4,0.2
		c0,0.1,0,0.3,0,0.4l-1.3,5.1c-0.4,1.6-1.2,2.8-2.4,3.6V25.9z"/>
    <path class="st0" d="M284.6,32.4h-6.5L277,36c-0.1,0.2-0.1,0.3-0.2,0.4c-0.1,0.1-0.3,0.1-0.6,0.1h-3.3c-0.2,0-0.3-0.1-0.4-0.2
		c0-0.1-0.1-0.2,0-0.4l5.9-17.8c0.1-0.3,0.2-0.6,0.3-0.8c0.1-0.2,0.3-0.4,0.4-0.5c0.2-0.1,0.3-0.2,0.6-0.2c0.2,0,0.5-0.1,0.8-0.1
		h1.7c0.3,0,0.6,0,0.8,0c0.2,0,0.4,0.1,0.6,0.2c0.2,0.1,0.3,0.3,0.4,0.5c0.1,0.2,0.2,0.5,0.4,0.8l5.9,17.8c0,0.1,0,0.2,0,0.4
		c0,0.1-0.2,0.2-0.4,0.2h-3.4c-0.2,0-0.4,0-0.5-0.1c-0.1,0-0.2-0.2-0.3-0.4L284.6,32.4z M279.1,28.9h4.5l-1.1-3.6l-1.1-4.1h-0.2
		l-1.1,4.1L279.1,28.9z"/>
    <path class="st9" d="M46.8,40.5L46.8,40.5H53c0-12,9.8-21.9,21.9-21.9v-6.2C59.4,12.5,46.8,25,46.8,40.5"/>
    <path class="st9" d="M74.9,24.9c-7,0-12.9,4.6-14.9,10.9c-0.5,1.5-0.7,3-0.7,4.6h6.2c0-1.9,0.6-3.7,1.6-5.2
		c1.7-2.5,4.5-4.1,7.8-4.1V24.9z"/>
    <path class="st0" d="M34.4,40.5c0-8.2-3-15.8-7.9-21.7c-0.4-0.5-0.8-1-1.3-1.4c-0.3-0.4-0.6-0.7-1-1.1c-0.4-0.4-0.8-0.8-1.2-1.1
		c-1-0.9-2-1.7-3-2.5c-0.1-0.1-0.2-0.1-0.3-0.2c-0.7-0.5-1.4-0.9-2.1-1.4c-0.2-0.1-0.3-0.2-0.5-0.3c-0.7-0.4-1.4-0.8-2.2-1.1
		c-0.2-0.1-0.3-0.2-0.5-0.3c-0.8-0.3-1.5-0.7-2.3-1c-0.2-0.1-0.3-0.1-0.5-0.2C10.9,8,10,7.7,9.2,7.5c-0.1,0-0.2-0.1-0.4-0.1
		C8,7.1,7.1,6.9,6.2,6.8v55.3l17.9,8.6l13.4,6.5l37.4-18.1V66l-0.3,0l0.1,0.2l-37.3,18l-14.9-7.2L0.2,66.1L0.2,66H0V0c0,0,0,0,0,0v0
		c0.1,0,0.1,0,0.2,0c1.1,0,2.2,0.1,3.2,0.1c0.5,0,0.9,0.1,1.4,0.2c0.7,0.1,1.4,0.2,2,0.3c0.5,0.1,1,0.2,1.5,0.3
		C9,1,9.6,1.2,10.2,1.3c0.5,0.1,1,0.3,1.5,0.4c0.6,0.2,1.2,0.4,1.8,0.6c0.5,0.2,0.9,0.3,1.4,0.5c1,0.4,1.9,0.8,2.8,1.2
		c0.5,0.2,0.9,0.5,1.4,0.7c0.5,0.3,1,0.6,1.5,0.8C21,5.9,21.5,6.2,22,6.5c0.4,0.3,0.9,0.6,1.3,0.9c0.5,0.3,0.9,0.7,1.4,1
		c0.4,0.3,0.8,0.6,1.2,1c0.3,0.3,0.7,0.5,1,0.8v0c4.5,4,8.2,9.1,10.6,14.8h0.1l0,0.1C35.5,29.8,34.4,35,34.4,40.5"/>
    <path class="st9" d="M74.9,0c-5.5,0-10.7,1.1-15.4,3.1l-0.1,0c-0.3,0.1-0.5,0.3-0.8,0.4C58,3.7,57.5,4,56.9,4.2
		c-0.3,0.2-0.7,0.4-1,0.5c-0.5,0.3-1.1,0.6-1.6,0.9c-0.3,0.2-0.7,0.4-1,0.6c-0.5,0.3-1,0.6-1.4,0.9c-0.4,0.2-0.7,0.5-1,0.8
		c-0.4,0.3-0.9,0.6-1.3,1c-0.4,0.3-0.7,0.6-1,0.9c-0.4,0.3-0.8,0.7-1.2,1c-0.4,0.3-0.7,0.7-1,1c-0.3,0.3-0.7,0.7-1,1
		c-0.4,0.4-0.7,0.8-1,1.2c-0.3,0.3-0.6,0.7-0.9,1c-0.3,0.4-0.7,0.9-1,1.3c-0.3,0.3-0.5,0.7-0.8,1c-0.3,0.5-0.6,1-0.9,1.5
		c-0.2,0.3-0.4,0.7-0.6,1c-0.3,0.5-0.6,1.1-0.9,1.6c-0.2,0.3-0.4,0.7-0.5,1c-0.3,0.6-0.5,1.1-0.8,1.7c-0.1,0.3-0.3,0.5-0.4,0.8
		l0,0.1c-0.5,1.2-0.9,2.4-1.3,3.6c-1.1,3.7-1.8,7.7-1.8,11.8c0-7.3-2.4-14.1-6.3-19.6c-5.4-4-12.5-7.2-21.9-8.1v6.3
		c9.3,1.1,16.1,4.8,20.8,9c-5.1-2.1-11.9-3.7-20.8-3.7v6.2c20.7-0.1,27.8,9.4,28.2,10v35.2l3.1,1.5l3.1-1.5V40.5h0
		C40.6,21.6,56,6.2,74.9,6.2V5.7V0.5V0z"/>
    <path class="st0" d="M58.6,10.3c-0.1,0-0.1,0.1-0.2,0.1C58.5,10.4,58.5,10.3,58.6,10.3"/>
    <path class="st10" d="M26.5,18.8c-0.4-0.5-0.8-1-1.3-1.4c-0.3-0.4-0.6-0.7-1-1.1c-0.4-0.4-0.8-0.8-1.2-1.1c-1-0.9-2-1.7-3-2.5
		c-0.1-0.1-0.2-0.1-0.3-0.2c-0.7-0.5-1.4-0.9-2.1-1.4c-0.2-0.1-0.3-0.2-0.5-0.3c-0.7-0.4-1.4-0.8-2.2-1.2c-0.2-0.1-0.3-0.2-0.5-0.2
		c-0.8-0.3-1.5-0.7-2.3-1c-0.2-0.1-0.3-0.1-0.5-0.2C10.8,8,10,7.7,9.2,7.5c-0.1,0-0.2-0.1-0.4-0.1C8,7.2,7.1,6.9,6.2,6.8v5.9
		c9.4,0.9,16.5,4.2,21.9,8.1C27.6,20.1,27.1,19.4,26.5,18.8 M6.2,30.5v31.6l17.9,8.6l10.3,5V40.5C33.9,39.9,26.9,30.4,6.2,30.5
		 M6.2,19v5.3c8.9,0,15.7,1.6,20.8,3.7C22.2,23.7,15.5,20,6.2,19"/>
    <rect x="99.9" y="46.3" class="st9" width="52.6" height="19.6"/>
    <path class="st1" d="M114.1,55.1H114l-0.8,1.8l-1.6,3.6c-0.1,0.3-0.3,0.6-0.4,0.7c-0.1,0.1-0.4,0.2-0.7,0.2h-1.1
		c-0.3,0-0.6-0.1-0.7-0.2c-0.1-0.1-0.3-0.3-0.4-0.7L107,58l-1.2-2.6h-0.1v7.3c0,0.2,0,0.3-0.1,0.3c-0.1,0-0.2,0.1-0.4,0.1h-2
		c-0.1,0-0.3,0-0.3-0.1c-0.1,0-0.1-0.1-0.1-0.3v-12c0-0.5,0.1-0.8,0.3-1.1c0.2-0.2,0.5-0.3,1-0.3h1.1c0.4,0,0.6,0.1,0.8,0.2
		c0.2,0.1,0.3,0.4,0.5,0.7l2.1,4.8l1.2,2.8h0.1l1.3-3.1l2-4.5c0.2-0.4,0.3-0.6,0.5-0.7c0.2-0.1,0.5-0.2,0.9-0.2h1
		c0.4,0,0.7,0.1,0.9,0.3c0.2,0.2,0.3,0.5,0.3,1v12c0,0.2,0,0.3-0.1,0.3c-0.1,0-0.2,0.1-0.4,0.1h-1.9c-0.1,0-0.3,0-0.3-0.1
		c-0.1,0-0.1-0.1-0.1-0.3V55.1z"/>
    <path class="st1" d="M123.7,60.3c0.6,0,1-0.1,1.4-0.2c0.4-0.2,0.7-0.4,1-0.7c0.3-0.3,0.5-0.7,0.6-1.1c0.1-0.4,0.2-0.9,0.3-1.4h-4.6
		c-0.1,0-0.2,0-0.3-0.1c-0.1,0-0.1-0.1-0.1-0.3v-1.7c0-0.2,0-0.3,0.1-0.3c0.1-0.1,0.2-0.1,0.3-0.1h4.6c-0.1-0.9-0.4-1.7-0.9-2.2
		c-0.5-0.5-1.2-0.8-2.1-0.8c-0.5,0-1,0-1.4,0.1c-0.4,0.1-0.9,0.2-1.3,0.4c-0.2,0.1-0.3,0.1-0.4,0c-0.1,0-0.2-0.1-0.2-0.3l-0.5-1.4
		c-0.1-0.2-0.1-0.4-0.1-0.4c0-0.1,0.1-0.2,0.3-0.2c0.6-0.3,1.3-0.5,1.9-0.7c0.7-0.1,1.3-0.2,2-0.2c1.9,0,3.4,0.6,4.5,1.7
		c1.1,1.2,1.6,2.8,1.6,5c0,1.1-0.1,2.1-0.4,3c-0.2,0.9-0.6,1.7-1.1,2.3c-0.5,0.6-1.1,1.1-1.9,1.5c-0.8,0.4-1.7,0.5-2.8,0.5
		c-0.8,0-1.5-0.1-2.3-0.2c-0.8-0.1-1.5-0.4-2.2-0.9c-0.1-0.1-0.2-0.1-0.2-0.2c0-0.1,0-0.2,0.1-0.4l0.7-1.4c0.1-0.1,0.1-0.2,0.2-0.3
		c0.1,0,0.2,0,0.4,0c0.4,0.2,0.9,0.3,1.4,0.5C122.5,60.2,123,60.3,123.7,60.3"/>
    <path class="st1" d="M134,63c-0.4,0-0.8-0.1-0.9-0.3c-0.2-0.2-0.3-0.5-0.3-1v-12c0-0.2,0.1-0.4,0.4-0.4h2.2c0.2,0,0.3,0,0.3,0.1
		c0,0.1,0.1,0.2,0.1,0.3v10.8h4V49.7c0-0.2,0.1-0.4,0.4-0.4h2.1c0.2,0,0.3,0,0.4,0.1c0.1,0.1,0.1,0.2,0.1,0.3v10.8h3.9V49.7
		c0-0.1,0-0.2,0.1-0.3c0-0.1,0.2-0.1,0.3-0.1h2.2c0.3,0,0.4,0.1,0.4,0.4v12c0,0.4-0.1,0.8-0.3,1c-0.2,0.2-0.5,0.3-0.9,0.3H134z"/>
</g>
</svg>
